<mxfile host="Electron" modified="2023-06-05T07:35:56.571Z" agent="Mozilla/5.0 (Windows NT 10.0; Win64; x64) AppleWebKit/537.36 (KHTML, like Gecko) draw.io/21.2.1 Chrome/112.0.5615.87 Electron/24.1.2 Safari/537.36" etag="d-vjhLaQFhr75z_09oa6" version="21.2.1" type="device">
  <diagram name="페이지-1" id="6ud9axVw_v1jPt3-QDqu">
    <mxGraphModel dx="1434" dy="964" grid="1" gridSize="10" guides="1" tooltips="1" connect="1" arrows="1" fold="1" page="1" pageScale="1" pageWidth="827" pageHeight="1169" math="0" shadow="0">
      <root>
        <mxCell id="0" />
        <mxCell id="1" parent="0" />
        <mxCell id="wjmpW0Cc1qAYsh2L37gM-1" value="&lt;font style=&quot;font-size: 18px;&quot;&gt;Start&lt;/font&gt;" style="ellipse;whiteSpace=wrap;html=1;" vertex="1" parent="1">
          <mxGeometry x="270" y="70" width="90" height="60" as="geometry" />
        </mxCell>
        <mxCell id="wjmpW0Cc1qAYsh2L37gM-2" value="&lt;font style=&quot;font-size: 18px;&quot;&gt;int nx, ky;&lt;/font&gt;" style="rounded=0;whiteSpace=wrap;html=1;" vertex="1" parent="1">
          <mxGeometry x="255" y="150" width="120" height="60" as="geometry" />
        </mxCell>
        <mxCell id="wjmpW0Cc1qAYsh2L37gM-3" value="&lt;font style=&quot;font-size: 14px;&quot;&gt;요소개수&lt;br&gt;(nx)입력&lt;/font&gt;" style="shape=parallelogram;perimeter=parallelogramPerimeter;whiteSpace=wrap;html=1;fixedSize=1;" vertex="1" parent="1">
          <mxGeometry x="255" y="230" width="120" height="60" as="geometry" />
        </mxCell>
        <mxCell id="wjmpW0Cc1qAYsh2L37gM-4" value="&lt;font style=&quot;font-size: 14px;&quot;&gt;요소 개수 만큼 &lt;br&gt;메모리 할당(x)&lt;/font&gt;" style="rounded=0;whiteSpace=wrap;html=1;" vertex="1" parent="1">
          <mxGeometry x="255" y="310" width="120" height="60" as="geometry" />
        </mxCell>
        <mxCell id="wjmpW0Cc1qAYsh2L37gM-6" value="x배열에 값을&lt;br style=&quot;border-color: var(--border-color);&quot;&gt;오름차순으로 정렬" style="shape=process;whiteSpace=wrap;html=1;backgroundOutline=1;" vertex="1" parent="1">
          <mxGeometry x="250" y="390" width="130" height="60" as="geometry" />
        </mxCell>
        <mxCell id="wjmpW0Cc1qAYsh2L37gM-7" value="&lt;span style=&quot;font-size: 14px;&quot;&gt;검색값&lt;br&gt;입력(ky)&lt;/span&gt;" style="shape=parallelogram;perimeter=parallelogramPerimeter;whiteSpace=wrap;html=1;fixedSize=1;" vertex="1" parent="1">
          <mxGeometry x="255" y="470" width="120" height="60" as="geometry" />
        </mxCell>
        <mxCell id="wjmpW0Cc1qAYsh2L37gM-8" value="이진검색 및&amp;nbsp;&amp;nbsp;&lt;br&gt;가장 앞쪽으로 &lt;br&gt;선형 검색" style="shape=process;whiteSpace=wrap;html=1;backgroundOutline=1;" vertex="1" parent="1">
          <mxGeometry x="250" y="555" width="130" height="60" as="geometry" />
        </mxCell>
        <mxCell id="wjmpW0Cc1qAYsh2L37gM-9" value="검색값 포인터&lt;br&gt;==NULL" style="rhombus;whiteSpace=wrap;html=1;" vertex="1" parent="1">
          <mxGeometry x="250" y="640" width="130" height="70" as="geometry" />
        </mxCell>
        <mxCell id="wjmpW0Cc1qAYsh2L37gM-10" value="" style="endArrow=classic;html=1;rounded=0;exitX=0.5;exitY=1;exitDx=0;exitDy=0;entryX=0.5;entryY=0;entryDx=0;entryDy=0;" edge="1" parent="1" source="wjmpW0Cc1qAYsh2L37gM-1" target="wjmpW0Cc1qAYsh2L37gM-2">
          <mxGeometry width="50" height="50" relative="1" as="geometry">
            <mxPoint x="400" y="570" as="sourcePoint" />
            <mxPoint x="450" y="520" as="targetPoint" />
          </mxGeometry>
        </mxCell>
        <mxCell id="wjmpW0Cc1qAYsh2L37gM-11" value="" style="endArrow=classic;html=1;rounded=0;exitX=0.5;exitY=1;exitDx=0;exitDy=0;entryX=0.5;entryY=0;entryDx=0;entryDy=0;" edge="1" parent="1" source="wjmpW0Cc1qAYsh2L37gM-2" target="wjmpW0Cc1qAYsh2L37gM-3">
          <mxGeometry width="50" height="50" relative="1" as="geometry">
            <mxPoint x="325" y="140" as="sourcePoint" />
            <mxPoint x="325" y="160" as="targetPoint" />
          </mxGeometry>
        </mxCell>
        <mxCell id="wjmpW0Cc1qAYsh2L37gM-12" value="" style="endArrow=classic;html=1;rounded=0;exitX=0.5;exitY=1;exitDx=0;exitDy=0;entryX=0.5;entryY=0;entryDx=0;entryDy=0;" edge="1" parent="1" source="wjmpW0Cc1qAYsh2L37gM-3" target="wjmpW0Cc1qAYsh2L37gM-4">
          <mxGeometry width="50" height="50" relative="1" as="geometry">
            <mxPoint x="335" y="150" as="sourcePoint" />
            <mxPoint x="335" y="170" as="targetPoint" />
          </mxGeometry>
        </mxCell>
        <mxCell id="wjmpW0Cc1qAYsh2L37gM-13" value="" style="endArrow=classic;html=1;rounded=0;exitX=0.5;exitY=1;exitDx=0;exitDy=0;entryX=0.5;entryY=0;entryDx=0;entryDy=0;" edge="1" parent="1" source="wjmpW0Cc1qAYsh2L37gM-4" target="wjmpW0Cc1qAYsh2L37gM-6">
          <mxGeometry width="50" height="50" relative="1" as="geometry">
            <mxPoint x="345" y="160" as="sourcePoint" />
            <mxPoint x="345" y="180" as="targetPoint" />
          </mxGeometry>
        </mxCell>
        <mxCell id="wjmpW0Cc1qAYsh2L37gM-14" value="" style="endArrow=classic;html=1;rounded=0;exitX=0.5;exitY=1;exitDx=0;exitDy=0;entryX=0.5;entryY=0;entryDx=0;entryDy=0;" edge="1" parent="1" source="wjmpW0Cc1qAYsh2L37gM-6" target="wjmpW0Cc1qAYsh2L37gM-7">
          <mxGeometry width="50" height="50" relative="1" as="geometry">
            <mxPoint x="355" y="170" as="sourcePoint" />
            <mxPoint x="355" y="190" as="targetPoint" />
          </mxGeometry>
        </mxCell>
        <mxCell id="wjmpW0Cc1qAYsh2L37gM-15" value="" style="endArrow=classic;html=1;rounded=0;exitX=0.5;exitY=1;exitDx=0;exitDy=0;entryX=0.5;entryY=0;entryDx=0;entryDy=0;" edge="1" parent="1" source="wjmpW0Cc1qAYsh2L37gM-7" target="wjmpW0Cc1qAYsh2L37gM-8">
          <mxGeometry width="50" height="50" relative="1" as="geometry">
            <mxPoint x="365" y="180" as="sourcePoint" />
            <mxPoint x="365" y="200" as="targetPoint" />
          </mxGeometry>
        </mxCell>
        <mxCell id="wjmpW0Cc1qAYsh2L37gM-16" value="" style="endArrow=classic;html=1;rounded=0;exitX=0.5;exitY=1;exitDx=0;exitDy=0;entryX=0.5;entryY=0;entryDx=0;entryDy=0;" edge="1" parent="1" source="wjmpW0Cc1qAYsh2L37gM-8" target="wjmpW0Cc1qAYsh2L37gM-9">
          <mxGeometry width="50" height="50" relative="1" as="geometry">
            <mxPoint x="375" y="190" as="sourcePoint" />
            <mxPoint x="375" y="210" as="targetPoint" />
          </mxGeometry>
        </mxCell>
        <mxCell id="wjmpW0Cc1qAYsh2L37gM-17" value="" style="endArrow=classic;html=1;rounded=0;exitX=1;exitY=0.5;exitDx=0;exitDy=0;entryX=0;entryY=0.5;entryDx=0;entryDy=0;" edge="1" parent="1" source="wjmpW0Cc1qAYsh2L37gM-9" target="wjmpW0Cc1qAYsh2L37gM-20">
          <mxGeometry width="50" height="50" relative="1" as="geometry">
            <mxPoint x="385" y="200" as="sourcePoint" />
            <mxPoint x="440" y="675" as="targetPoint" />
          </mxGeometry>
        </mxCell>
        <mxCell id="wjmpW0Cc1qAYsh2L37gM-19" value="" style="endArrow=classic;html=1;rounded=0;exitX=0.5;exitY=1;exitDx=0;exitDy=0;entryX=0.5;entryY=0;entryDx=0;entryDy=0;" edge="1" parent="1" source="wjmpW0Cc1qAYsh2L37gM-9" target="wjmpW0Cc1qAYsh2L37gM-21">
          <mxGeometry width="50" height="50" relative="1" as="geometry">
            <mxPoint x="390" y="685" as="sourcePoint" />
            <mxPoint x="315" y="770" as="targetPoint" />
          </mxGeometry>
        </mxCell>
        <mxCell id="wjmpW0Cc1qAYsh2L37gM-20" value="&lt;font style=&quot;font-size: 18px;&quot;&gt;검색에 실패&lt;/font&gt;" style="shape=document;whiteSpace=wrap;html=1;boundedLbl=1;" vertex="1" parent="1">
          <mxGeometry x="470" y="635" width="120" height="80" as="geometry" />
        </mxCell>
        <mxCell id="wjmpW0Cc1qAYsh2L37gM-21" value="&quot;ky는 x[%d]에 있다." style="shape=document;whiteSpace=wrap;html=1;boundedLbl=1;" vertex="1" parent="1">
          <mxGeometry x="255" y="770" width="120" height="80" as="geometry" />
        </mxCell>
        <mxCell id="wjmpW0Cc1qAYsh2L37gM-22" value="&lt;span style=&quot;font-size: 18px;&quot;&gt;End&lt;/span&gt;" style="ellipse;whiteSpace=wrap;html=1;" vertex="1" parent="1">
          <mxGeometry x="270" y="890" width="90" height="60" as="geometry" />
        </mxCell>
        <mxCell id="wjmpW0Cc1qAYsh2L37gM-23" value="" style="endArrow=classic;html=1;rounded=0;entryX=0.5;entryY=0;entryDx=0;entryDy=0;exitX=0.5;exitY=0.838;exitDx=0;exitDy=0;exitPerimeter=0;" edge="1" parent="1" source="wjmpW0Cc1qAYsh2L37gM-21" target="wjmpW0Cc1qAYsh2L37gM-22">
          <mxGeometry width="50" height="50" relative="1" as="geometry">
            <mxPoint x="310" y="840" as="sourcePoint" />
            <mxPoint x="325" y="780" as="targetPoint" />
          </mxGeometry>
        </mxCell>
        <mxCell id="wjmpW0Cc1qAYsh2L37gM-24" value="" style="endArrow=classic;html=1;rounded=0;exitX=0.5;exitY=0.813;exitDx=0;exitDy=0;exitPerimeter=0;" edge="1" parent="1" source="wjmpW0Cc1qAYsh2L37gM-20">
          <mxGeometry width="50" height="50" relative="1" as="geometry">
            <mxPoint x="530" y="700" as="sourcePoint" />
            <mxPoint x="320" y="870" as="targetPoint" />
            <Array as="points">
              <mxPoint x="530" y="870" />
            </Array>
          </mxGeometry>
        </mxCell>
      </root>
    </mxGraphModel>
  </diagram>
</mxfile>
